<mxfile host="app.diagrams.net" modified="2024-04-29T11:29:42.880Z" agent="Mozilla/5.0 (X11; Linux x86_64) AppleWebKit/537.36 (KHTML, like Gecko) Chrome/123.0.0.0 Safari/537.36" etag="Eqm-S-sLZJ-iQsj7Q1ih" version="24.3.1" type="github">
  <diagram name="Page-1" id="h0j11PAoBNnZOjl50wy9">
    <mxGraphModel dx="1106" dy="1728" grid="1" gridSize="10" guides="1" tooltips="1" connect="1" arrows="1" fold="1" page="1" pageScale="1" pageWidth="850" pageHeight="1100" math="0" shadow="0">
      <root>
        <mxCell id="0" />
        <mxCell id="1" parent="0" />
        <mxCell id="BE0f78BMKFHATQ1xb_2E-1" value="bc" style="ellipse;whiteSpace=wrap;html=1;aspect=fixed;fontStyle=0" vertex="1" parent="1">
          <mxGeometry x="330" y="-830" width="21" height="21" as="geometry" />
        </mxCell>
        <mxCell id="BE0f78BMKFHATQ1xb_2E-2" value="abc" style="ellipse;whiteSpace=wrap;html=1;aspect=fixed;fontStyle=0" vertex="1" parent="1">
          <mxGeometry x="291" y="-890" width="21" height="21" as="geometry" />
        </mxCell>
        <mxCell id="BE0f78BMKFHATQ1xb_2E-3" value="" style="endArrow=none;html=1;rounded=0;exitX=0.5;exitY=0;exitDx=0;exitDy=0;entryX=1;entryY=1;entryDx=0;entryDy=0;fontStyle=0" edge="1" parent="1" source="BE0f78BMKFHATQ1xb_2E-14" target="BE0f78BMKFHATQ1xb_2E-16">
          <mxGeometry width="50" height="50" relative="1" as="geometry">
            <mxPoint x="205" y="-825" as="sourcePoint" />
            <mxPoint x="203.0726962961444" y="-1015.6959591109107" as="targetPoint" />
          </mxGeometry>
        </mxCell>
        <mxCell id="BE0f78BMKFHATQ1xb_2E-4" value="" style="endArrow=none;html=1;rounded=0;exitX=0.5;exitY=0;exitDx=0;exitDy=0;entryX=0;entryY=1;entryDx=0;entryDy=0;fontStyle=0" edge="1" parent="1" source="BE0f78BMKFHATQ1xb_2E-13" target="BE0f78BMKFHATQ1xb_2E-14">
          <mxGeometry width="50" height="50" relative="1" as="geometry">
            <mxPoint x="64.99568901432417" y="-832.9956890143242" as="sourcePoint" />
            <mxPoint x="138.00431098567537" y="-919.0043109856754" as="targetPoint" />
          </mxGeometry>
        </mxCell>
        <mxCell id="BE0f78BMKFHATQ1xb_2E-5" value="" style="endArrow=none;html=1;rounded=0;exitX=0.5;exitY=0;exitDx=0;exitDy=0;entryX=0;entryY=1;entryDx=0;entryDy=0;fontStyle=0" edge="1" parent="1" source="BE0f78BMKFHATQ1xb_2E-10" target="BE0f78BMKFHATQ1xb_2E-2">
          <mxGeometry width="50" height="50" relative="1" as="geometry">
            <mxPoint x="101.00431098567583" y="-724.9956890143242" as="sourcePoint" />
            <mxPoint x="230" y="-870" as="targetPoint" />
          </mxGeometry>
        </mxCell>
        <mxCell id="BE0f78BMKFHATQ1xb_2E-7" value="" style="endArrow=none;html=1;rounded=0;exitX=0.5;exitY=0;exitDx=0;exitDy=0;entryX=0;entryY=1;entryDx=0;entryDy=0;fontStyle=0" edge="1" parent="1" source="BE0f78BMKFHATQ1xb_2E-15" target="BE0f78BMKFHATQ1xb_2E-16">
          <mxGeometry width="50" height="50" relative="1" as="geometry">
            <mxPoint x="205" y="-825" as="sourcePoint" />
            <mxPoint x="245.84854335144678" y="-1018.189412717966" as="targetPoint" />
          </mxGeometry>
        </mxCell>
        <mxCell id="BE0f78BMKFHATQ1xb_2E-8" value="" style="endArrow=none;html=1;rounded=0;entryX=0;entryY=1;entryDx=0;entryDy=0;exitX=0.5;exitY=0;exitDx=0;exitDy=0;fontStyle=0" edge="1" parent="1" source="BE0f78BMKFHATQ1xb_2E-11" target="BE0f78BMKFHATQ1xb_2E-1">
          <mxGeometry width="50" height="50" relative="1" as="geometry">
            <mxPoint x="267.99568901432417" y="-832.9956890143242" as="sourcePoint" />
            <mxPoint x="255" y="-875" as="targetPoint" />
          </mxGeometry>
        </mxCell>
        <mxCell id="BE0f78BMKFHATQ1xb_2E-9" value="" style="endArrow=none;html=1;rounded=0;entryX=1;entryY=1;entryDx=0;entryDy=0;exitX=0.5;exitY=0;exitDx=0;exitDy=0;fontStyle=0" edge="1" parent="1" source="BE0f78BMKFHATQ1xb_2E-12" target="BE0f78BMKFHATQ1xb_2E-1">
          <mxGeometry width="50" height="50" relative="1" as="geometry">
            <mxPoint x="435.00431098567606" y="-829.995689014324" as="sourcePoint" />
            <mxPoint x="255" y="-875" as="targetPoint" />
          </mxGeometry>
        </mxCell>
        <mxCell id="BE0f78BMKFHATQ1xb_2E-10" value="&lt;font style=&quot;font-size: 12px;&quot;&gt;d&lt;/font&gt;" style="ellipse;whiteSpace=wrap;html=1;aspect=fixed;fontStyle=0" vertex="1" parent="1">
          <mxGeometry x="249" y="-830" width="21" height="21" as="geometry" />
        </mxCell>
        <mxCell id="BE0f78BMKFHATQ1xb_2E-11" value="&lt;font style=&quot;font-size: 12px;&quot;&gt;b&lt;/font&gt;" style="ellipse;whiteSpace=wrap;html=1;aspect=fixed;fontStyle=0" vertex="1" parent="1">
          <mxGeometry x="300" y="-770" width="21" height="21" as="geometry" />
        </mxCell>
        <mxCell id="BE0f78BMKFHATQ1xb_2E-12" value="&lt;font style=&quot;font-size: 12px;&quot;&gt;c&lt;/font&gt;" style="ellipse;whiteSpace=wrap;html=1;aspect=fixed;fontStyle=0" vertex="1" parent="1">
          <mxGeometry x="370" y="-770" width="21" height="21" as="geometry" />
        </mxCell>
        <mxCell id="BE0f78BMKFHATQ1xb_2E-13" value="a" style="ellipse;whiteSpace=wrap;html=1;aspect=fixed;fontStyle=0" vertex="1" parent="1">
          <mxGeometry x="190" y="-900" width="21" height="21" as="geometry" />
        </mxCell>
        <mxCell id="BE0f78BMKFHATQ1xb_2E-14" value="abcd" style="ellipse;whiteSpace=wrap;html=1;aspect=fixed;fontStyle=0" vertex="1" parent="1">
          <mxGeometry x="239" y="-970" width="31" height="31" as="geometry" />
        </mxCell>
        <mxCell id="BE0f78BMKFHATQ1xb_2E-15" value="&lt;font style=&quot;font-size: 12px;&quot;&gt;e&lt;/font&gt;" style="ellipse;whiteSpace=wrap;html=1;aspect=fixed;fontStyle=0" vertex="1" parent="1">
          <mxGeometry x="140" y="-965" width="21" height="21" as="geometry" />
        </mxCell>
        <mxCell id="BE0f78BMKFHATQ1xb_2E-16" value="&lt;font style=&quot;font-size: 12px;&quot;&gt;abcde&lt;/font&gt;" style="ellipse;whiteSpace=wrap;html=1;aspect=fixed;fontStyle=0" vertex="1" parent="1">
          <mxGeometry x="180" y="-1060" width="41" height="41" as="geometry" />
        </mxCell>
        <mxCell id="BE0f78BMKFHATQ1xb_2E-17" value="" style="endArrow=none;html=1;rounded=0;entryX=1;entryY=1;entryDx=0;entryDy=0;exitX=0.5;exitY=0;exitDx=0;exitDy=0;fontStyle=0" edge="1" parent="1" source="BE0f78BMKFHATQ1xb_2E-2" target="BE0f78BMKFHATQ1xb_2E-14">
          <mxGeometry width="50" height="50" relative="1" as="geometry">
            <mxPoint x="195" y="-847" as="sourcePoint" />
            <mxPoint x="245" y="-897" as="targetPoint" />
          </mxGeometry>
        </mxCell>
        <mxCell id="BE0f78BMKFHATQ1xb_2E-19" value="" style="endArrow=none;html=1;rounded=0;entryX=1;entryY=1;entryDx=0;entryDy=0;exitX=0.5;exitY=0;exitDx=0;exitDy=0;fontStyle=0" edge="1" parent="1" source="BE0f78BMKFHATQ1xb_2E-1" target="BE0f78BMKFHATQ1xb_2E-2">
          <mxGeometry width="50" height="50" relative="1" as="geometry">
            <mxPoint x="290" y="-780" as="sourcePoint" />
            <mxPoint x="340" y="-830" as="targetPoint" />
          </mxGeometry>
        </mxCell>
      </root>
    </mxGraphModel>
  </diagram>
</mxfile>
